#!OML:ASF H:\ManfredETheater\Project 1\Capture day 1\Session 1\subject.ASF
:FULLY-SPECIFIED
:DEGREES
76
root -1.89548 17.6207 26.0851 -162.033 -2.72706 -183.757
lowerback 18.9202 -2.84669 -1.72584
upperback 2.23926 -4.38816 1.38566
thorax -7.91526 -2.20164 3.60304
lowerneck -16.1213 0.201685 -1.34727
upperneck 3.262 0.849471 -1.52447
head 3.97974 0.396265 -0.194401
rclavicle -1.63003e-014 -3.77691e-015
rhumerus -79.1582 8.34804 -84.2021
rradius 93.5789
rwrist -7.30676
rhand -27.4084 9.84514
rfingers 7.12502
rthumb -0.814518 -20.133
lclavicle -1.63003e-014 -3.77691e-015
lhumerus -27.9706 -29.1227 99.5935
lradius 122.009
lwrist 5.68213
lhand -25.779 -21.5415
lfingers 7.12502
lthumb 0.759189 8.4369
rfemur -89.0085 -7.24821 18.4839
rtibia 94.161
rfoot -20.8769 -9.00083
rtoes -35.2457
lfemur -4.96869 -5.02566 -24.8387
ltibia 28.8771
lfoot -1.32711 -4.67049
ltoes -19.0112
77
root -1.87423 17.8023 25.6614 -162.113 -2.33394 -183.893
lowerback 19.0353 -2.77021 -1.86848
upperback 2.37613 -4.34026 1.3772
thorax -7.82246 -2.1871 3.66516
lowerneck -16.0202 0.283118 -1.29265
upperneck 3.1598 0.955433 -1.64772
head 3.92399 0.445846 -0.237106
rclavicle 3.95581e-014 -2.14687e-014
rhumerus -78.4833 7.82344 -84.1689
rradius 93.3669
rwrist -7.17
rhand -27.2926 9.96103
rfingers 7.12502
rthumb -0.702646 -20.0176
lclavicle 3.95581e-014 -2.14687e-014
lhumerus -28.4397 -28.9728 99.5967
lradius 121.102
lwrist 5.31198
lhand -26.1314 -21.5325
lfingers 7.12502
lthumb 0.418811 8.44681
rfemur -88.5743 -6.78173 18.4549
rtibia 90.4443
rfoot -20.3992 -8.01848
rtoes -37.1377
lfemur -4.30583 -5.17911 -25.0327
ltibia 28.7345
lfoot 3.12618 -4.87381
ltoes -17.1399
78
root -1.85061 17.9486 25.2411 -162.144 -2.00723 -184.145
lowerback 19.107 -2.70054 -2.0995
upperback 2.50801 -4.32016 1.33393
thorax -7.70625 -2.18398 3.74339
lowerneck -15.9613 0.347228 -1.22287
upperneck 3.08423 1.03666 -1.77103
head 3.8866 0.483024 -0.284571
rclavicle -2.11706e-014 -3.97569e-015
rhumerus -77.4943 7.22611 -84.1312
rradius 92.976
rwrist -7.09586
rhand -27.2386 9.92828
rfingers 7.12502
rthumb -0.650488 -20.0505
lclavicle -2.11706e-014 -3.97569e-015
lhumerus -28.9492 -28.5554 99.6346
lradius 119.845
lwrist 5.53583
lhand -26.451 -21.3721
lfingers 7.12502
lthumb 0.110195 8.60764
rfemur -88.1387 -6.50377 18.4355
rtibia 87.0442
rfoot -19.4132 -6.82081
rtoes -38.6115
lfemur -4.14478 -5.36654 -25.3345
ltibia 29.4222
lfoot 6.53936 -5.1763
ltoes -14.6382
79
root -1.82667 18.1128 24.819 -162.137 -1.74875 -184.495
lowerback 19.1666 -2.64149 -2.3907
upperback 2.6151 -4.32526 1.26047
thorax -7.6068 -2.1898 3.82944
lowerneck -15.934 0.397268 -1.1484
upperneck 3.04943 1.09869 -1.8943
head 3.87038 0.509775 -0.334436
rclavicle -3.45885e-014 1.76918e-014
rhumerus -76.2663 6.58046 -84.0995
rradius 92.4398
rwrist -7.16775
rhand -27.2432 9.71612
rfingers 7.12502
rthumb -0.655021 -20.2626
lclavicle -3.45885e-014 1.76918e-014
lhumerus -29.5036 -27.88 99.7013
lradius 118.283
lwrist 6.28017
lhand -26.6915 -21.0562
lfingers 7.12502
lthumb -0.122097 8.92349
rfemur -87.3286 -6.40959 18.4337
rtibia 83.8169
rfoot -18.0874 -5.54261
rtoes -39.4699
lfemur -4.45483 -5.5465 -25.7212
ltibia 30.8911
lfoot 8.69971 -5.60554
ltoes -12.2048
80
root -1.80189 18.2654 24.3978 -162.118 -1.57541 -184.917
lowerback 19.1995 -2.58979 -2.72385
upperback 2.7185 -4.34782 1.17947
thorax -7.49311 -2.20349 3.9335
lowerneck -15.9244 0.424873 -1.09193
upperneck 3.02474 1.13617 -2.02482
head 3.86134 0.523811 -0.385487
rclavicle 4.55217e-014 -1.63003e-014
rhumerus -74.8141 5.89219 -84.0485
rradius 91.778
rwrist -7.43841
rhand -27.2965 9.30898
rfingers 7.12502
rthumb -0.706503 -20.6696
lclavicle 4.55217e-014 -1.63003e-014
lhumerus -30.0348 -26.9863 99.7859
lradius 116.441
lwrist 7.40904
lhand -26.8453 -20.6079
lfingers 7.12502
lthumb -0.27071 9.37171
rfemur -86.3658 -6.48462 18.4809
rtibia 80.9944
rfoot -16.4106 -4.35123
rtoes -39.4875
lfemur -5.18729 -5.67839 -26.1579
ltibia 33.1717
lfoot 9.6448 -6.09947
ltoes -9.98607
81
root -1.77665 18.4064 23.9772 -162.113 -1.48879 -185.366
lowerback 19.2205 -2.54139 -3.05681
upperback 2.82178 -4.37343 1.1086
thorax -7.37191 -2.21938 4.04824
lowerneck -15.9113 0.422763 -1.07186
upperneck 2.99793 1.14254 -2.16178
head 3.85057 0.522033 -0.434705
rclavicle 3.58806e-014 1.72943e-014
rhumerus -73.1867 5.16824 -83.9687
rradius 91.0137
rwrist -7.93596
rhand -27.3832 8.73238
rfingers 7.12502
rthumb -0.790191 -21.2459
lclavicle 3.58806e-014 1.72943e-014
lhumerus -30.5107 -25.9052 99.8795
lradius 114.345
lwrist 8.71227
lhand -26.9133 -20.0473
lfingers 7.12502
lthumb -0.336373 9.9322
rfemur -85.2437 -6.70294 18.6117
rtibia 78.6417
rfoot -14.6007 -3.44408
rtoes -38.6397
lfemur -6.22097 -5.7291 -26.5929
ltibia 36.0756
lfoot 9.60459 -6.53968
ltoes -8.13154
82
root -1.75088 18.536 23.5568 -162.145 -1.47885 -185.779
lowerback 19.2398 -2.4861 -3.34361
upperback 2.92837 -4.37843 1.06579
thorax -7.24893 -2.22713 4.16199
lowerneck -15.881 0.390311 -1.09259
upperneck 2.96034 1.1177 -2.30689
head 3.83219 0.504567 -0.481856
rclavicle -1.76918e-014 1.82882e-014
rhumerus -71.4288 4.39816 -83.8566
rradius 90.1679
rwrist -8.62404
rhand -27.5069 7.97964
rfingers 7.12502
rthumb -0.909642 -21.9982
lclavicle -1.76918e-014 1.82882e-014
lhumerus -30.9133 -24.6907 99.9854
lradius 112.009
lwrist 10.0031
lhand -26.923 -19.4542
lfingers 7.12502
lthumb -0.345705 10.5253
rfemur -83.9653 -7.02053 18.8609
rtibia 76.8548
rfoot -12.9313 -2.92696
rtoes -36.9113
lfemur -7.53967 -5.67548 -26.9592
ltibia 39.615
lfoot 8.83332 -6.86952
ltoes -6.68977
83
root -1.72452 18.6563 23.1365 -162.238 -1.53198 -186.096
lowerback 19.2772 -2.41669 -3.54185
upperback 3.03842 -4.34463 1.06359
thorax -7.1386 -2.21837 4.26155
lowerneck -15.8152 0.326242 -1.15313
upperneck 2.9107 1.05801 -2.45162
head 3.80194 0.470038 -0.524502
rclavicle -2.64384e-014 -4.37326e-015
rhumerus -69.5851 3.58776 -83.7143
rradius 89.2498
rwrist -9.41958
rhand -27.6619 7.11457
rfingers 7.12502
rthumb -1.05934 -22.8625
lclavicle -2.64384e-014 -4.37326e-015
lhumerus -31.239 -23.3864 100.098
lradius 109.441
lwrist 11.1118
lhand -26.9294 -18.9091
lfingers 7.12502
lthumb -0.351928 11.0703
rfemur -82.5097 -7.38718 19.243
rtibia 75.6376
rfoot -11.6614 -2.80215
rtoes -34.5347
lfemur -9.07218 -5.49711 -27.1934
ltibia 43.6539
lfoot 7.70487 -7.05939
ltoes -5.59256
84
root -1.69707 18.7697 22.7161 -162.412 -1.63516 -186.256
lowerback 19.3414 -2.32639 -3.61061
upperback 3.15714 -4.25527 1.1113
thorax -7.04404 -2.18592 4.33031
lowerneck -15.7004 0.234002 -1.24428
upperneck 2.84746 0.964366 -2.58677
head 3.75664 0.419462 -0.561012
rclavicle 1.8487e-014 -7.55382e-015
rhumerus -67.6897 2.73705 -83.5525
rradius 88.268
rwrist -10.2098
rhand -27.8425 6.20079
rfingers 7.12502
rthumb -1.23384 -23.7754
lclavicle 1.8487e-014 -7.55382e-015
lhumerus -31.4891 -22.0299 100.213
lradius 106.661
lwrist 11.9422
lhand -26.9768 -18.4931
lfingers 7.12502
lthumb -0.397651 11.4863
rfemur -80.8432 -7.74678 19.7507
rtibia 74.9318
rfoot -11.0115 -2.9689
rtoes -31.6991
lfemur -10.751 -5.17705 -27.2303
ltibia 48.0479
lfoot 6.47841 -7.11894
ltoes -4.84179
85
root -1.66793 18.8777 22.296 -162.681 -1.77797 -186.217
lowerback 19.4555 -2.21284 -3.52715
upperback 3.27929 -4.10323 1.21438
thorax -6.98495 -2.12577 4.36132
lowerneck -15.5458 0.119574 -1.35427
upperneck 2.79396 0.840601 -2.69926
head 3.70655 0.354604 -0.58875
rclavicle -1.21259e-014 -6.75868e-015
rhumerus -65.7735 1.85555 -83.3895
rradius 87.2274
rwrist -10.8632
rhand -28.0487 5.30403
rfingers 7.12502
rthumb -1.43293 -24.6709
lclavicle -1.21259e-014 -6.75868e-015
lhumerus -31.6814 -20.6487 100.321
lradius 103.694
lwrist 12.4256
lhand -27.1171 -18.2609
lfingers 7.12502
lthumb -0.533183 11.7181
rfemur -78.9391 -8.04759 20.3615
rtibia 74.6236
rfoot -11.0495 -3.48099
rtoes -28.9956
lfemur -12.537 -4.72321 -27.0237
ltibia 52.6758
lfoot 5.2852 -7.10856
ltoes -4.08177
86
root -1.63671 18.9803 21.8765 -163.05 -1.93317 -185.943
lowerback 19.6362 -2.07038 -3.27075
upperback 3.4013 -3.87782 1.37052
thorax -6.97588 -2.03278 4.33852
lowerneck -15.3744 -0.011817 -1.46833
upperneck 2.77764 0.689531 -2.77392
head 3.66602 0.276583 -0.605126
rclavicle -5.42682e-014 2.3059e-014
rhumerus -63.8513 0.951671 -83.2503
rradius 86.116
rwrist -11.2644
rhand -28.2713 4.52567
rfingers 7.12502
rthumb -1.64795 -25.4477
lclavicle -5.42682e-014 2.3059e-014
lhumerus -31.8411 -19.274 100.404
lradius 100.583
lwrist 12.5825
lhand -27.3884 -18.214
lfingers 7.12502
lthumb -0.79525 11.7642
rfemur -76.7902 -8.22875 21.068
rtibia 74.5769
rfoot -11.6761 -4.24106
rtoes -26.71
lfemur -14.3801 -4.12792 -26.5381
ltibia 57.4284
lfoot 4.11702 -7.0793
ltoes -3.56496
87
root -1.60335 19.0777 21.4584 -163.517 -2.08817 -185.414
lowerback 19.8975 -1.90376 -2.82782
upperback 3.51406 -3.58194 1.57855
thorax -7.03284 -1.90819 4.2536
lowerneck -15.1969 -0.151598 -1.57854
upperneck 2.81106 0.520081 -2.79982
head 3.64172 0.189674 -0.607295
rclavicle -1.94809e-014 1.31198e-014
rhumerus -61.948 0.0629795 -83.1585
rradius 84.9506
rwrist -11.3545
rhand -28.5171 3.93239
rfingers 7.12502
rthumb -1.88533 -26.039
lclavicle -1.94809e-014 1.31198e-014
lhumerus -32.0072 -17.9149 100.452
lradius 97.3946
lwrist 12.4418
lhand -27.8001 -18.326
lfingers 7.12502
lthumb -1.19289 11.6505
rfemur -74.396 -8.2568 21.8737
rtibia 74.5877
rfoot -12.6908 -5.16631
rtoes -25.0956
lfemur -16.2344 -3.39913 -25.75
ltibia 62.129
lfoot 3.00413 -7.02931
ltoes -3.49098
88
root -1.56778 19.1697 21.0422 -164.06 -2.23843 -184.638
lowerback 20.228 -1.72107 -2.19839
upperback 3.61771 -3.22513 1.83036
thorax -7.14599 -1.75806 4.09745
lowerneck -15.0389 -0.298544 -1.68189
upperneck 2.89833 0.333464 -2.76472
head 3.64017 0.0947887 -0.591768
rclavicle -3.18055e-015 2.50469e-014
rhumerus -60.0537 -0.783576 -83.141
rradius 83.7507
rwrist -11.1454
rhand -28.7924 3.51277
rfingers 7.12502
rthumb -2.1512 -26.4561
lclavicle -3.18055e-015 2.50469e-014
lhumerus -32.2033 -16.5946 100.435
lradius 94.2154
lwrist 12.0704
lhand -28.3284 -18.5374
lfingers 7.12502
lthumb -1.70304 11.4356
rfemur -71.8137 -8.12486 22.7897
rtibia 74.6084
rfoot -13.9917 -6.19795
rtoes -24.2558
lfemur -18.1466 -2.56656 -24.6586
ltibia 66.8209
lfoot 1.88445 -6.92309
ltoes -3.59351
89
root -1.52936 19.3043 20.6218 -164.637 -2.37164 -183.646
lowerback 20.6044 -1.52864 -1.40022
upperback 3.70328 -2.81597 2.11565
thorax -7.30754 -1.58694 3.86813
lowerneck -14.9246 -0.448324 -1.77584
upperneck 3.0311 0.13682 -2.67174
head 3.6634 -0.00425432 -0.559631
rclavicle 1.39149e-014 1.35174e-014
rhumerus -58.1601 -1.54347 -83.2162
rradius 82.5435
rwrist -10.7163
rhand -29.0998 3.2551
rfingers 7.12502
rthumb -2.4481 -26.7106
lclavicle 1.39149e-014 1.35174e-014
lhumerus -32.4696 -15.3369 100.341
lradius 91.1508
lwrist 11.5284
lhand -28.9169 -18.7642
lfingers 7.12502
lthumb -2.27149 11.2035
rfemur -68.8177 -7.86348 23.8126
rtibia 74.3468
rfoot -15.5244 -7.289
rtoes -24.2541
lfemur -20.0467 -1.65717 -23.2884
ltibia 71.2471
lfoot 0.760124 -6.77375
ltoes -3.89866
